<?xml version="1.0" encoding="utf-8"?>
<!-- Generator: Adobe Illustrator 22.0.1, SVG Export Plug-In . SVG Version: 6.00 Build 0)  -->
<svg version="1.0" id="レイヤー_1" xmlns="http://www.w3.org/2000/svg" xmlns:xlink="http://www.w3.org/1999/xlink" x="0px"
	 y="0px" viewBox="0 0 400 371.255" enable-background="new 0 0 400 371.255" xml:space="preserve">
<path d="M202.205,371.255l-0.08-0.139L4.41,28.66H400l-0.08,0.139L202.205,371.255z M4.731,28.846l197.474,342.038L399.678,28.846
	H4.731z"/>
<path d="M228.874,351.878l-0.103-0.123L0,79.115l0.158-0.028l350.496-61.802l-0.055,0.151L228.874,351.878z M0.348,79.242
	L228.81,351.513L350.37,17.524L0.348,79.242z"/>
<path d="M248.841,324.528l-0.123-0.104L3.331,118.518l0.151-0.055L304.493,8.904l-0.028,0.158L248.841,324.528z M3.696,118.582
	l245.017,205.597l55.541-314.99L3.696,118.582z"/>
<path d="M262.633,291.722l-0.139-0.08L12.808,147.485l0.139-0.08L262.632,3.248L262.633,291.722z M13.179,147.485L262.447,291.4
	L262.447,3.569L13.179,147.485z"/>
<path d="M270.911,255.712l-0.151-0.055L26.912,166.904l0.123-0.103L225.821,0l0.028,0.158L270.911,255.712z M27.277,166.839
	l243.395,88.589L225.694,0.348L27.277,166.839z"/>
<path d="M277.023,222.026l-0.158-0.028L46.849,181.442l0.103-0.123L197.084,2.395l0.055,0.151L277.023,222.026z M47.198,181.315
	l229.542,40.471L197.019,2.76L47.198,181.315z"/>
<path d="M70.941,191.48h-0.16l0.08-0.139L175.972,9.279l0.08,0.139l105.112,182.058L70.941,191.48z M175.972,9.65L71.101,191.295
	l209.742-0.004L175.972,9.65z"/>
<path d="M97.067,197.501l0.055-0.151L161.837,19.54l0.103,0.123L283.567,164.61l-0.159,0.028L97.067,197.501z M161.902,19.905
	L97.351,197.262l185.867-32.779L161.902,19.905z"/>
<path d="M121.661,201.958l0.028-0.158l29.572-167.726l0.123,0.103L281.85,143.649l-0.151,0.055L121.661,201.958z M151.388,34.422
	l-29.489,167.252l159.586-58.09L151.388,34.422z"/>
<path d="M143.964,204.995l-0.003-153.458l0.139,0.08l132.759,76.647l-0.139,0.08L143.964,204.995z M144.147,51.858l0.003,152.815
	l132.339-76.409L144.147,51.858z"/>
<path d="M163.579,206.779l-0.028-0.159L139.588,70.735l0.151,0.055l129.662,47.191l-0.123,0.103L163.579,206.779z M139.827,71.019
	l23.88,135.411l105.33-88.384L139.827,71.019z"/>
<path d="M178.874,205.556l-0.055-0.151L136.337,88.697l0.158,0.028L258.81,110.29l-0.104,0.123L178.874,205.556z M136.621,88.935
	l42.317,116.256l79.523-94.774L136.621,88.935z"/>
<path d="M190.086,201.945l-0.08-0.139l-55.9-96.817h111.957l-0.08,0.139L190.086,201.945z M134.427,105.174l55.659,96.4l55.655-96.4
	H134.427z"/>
<path d="M197.559,196.528l-0.103-0.123l-64.685-77.087l0.158-0.028l99.103-17.474l-0.055,0.151L197.559,196.528z M133.119,119.444
	l64.376,76.719l34.253-94.109L133.119,119.444z"/>
<path d="M203.146,188.807l-0.123-0.104l-69.393-58.223l0.151-0.055l85.123-30.983l-0.028,0.158L203.146,188.807z M133.995,130.545
	l69.024,57.913l15.645-88.731L133.995,130.545z"/>
<path d="M206.993,179.497l-0.139-0.08l-70.617-40.766l0.139-0.08l70.618-40.773L206.993,179.497z M136.608,138.651l70.2,40.525
	l0.001-81.058L136.608,138.651z"/>
<path d="M209.291,169.233l-0.151-0.055l-68.976-25.101l0.123-0.103l56.231-47.183L209.291,169.233z M140.529,144.013l68.523,24.936
	l-12.661-71.81L140.529,144.013z"/>
<path d="M211.021,159.626l-0.158-0.028l-65.074-11.469l0.103-0.123l42.475-50.621l0.055,0.151L211.021,159.626z M146.138,148.002
	l64.6,11.385L188.302,97.75L146.138,148.002z"/>
<path d="M152.592,150.914l0.08-0.139l29.744-51.519l0.08,0.139l29.743,51.515L152.592,150.914z M182.416,99.627l-29.503,51.102
	l59.005-0.004L182.416,99.627z"/>
<path d="M160.11,152.573l0.055-0.151l18.317-50.325l0.103,0.123l34.423,41.023l-0.159,0.028L160.11,152.573z M178.546,102.462
	l-18.153,49.872l52.265-9.218L178.546,102.462z"/>
<path d="M167.147,153.836l0.028-0.158l8.373-47.482l0.123,0.103l36.932,30.99l-0.151,0.055L167.147,153.836z M175.675,106.544
	l-8.29,47.008l44.853-16.328L175.675,106.544z"/>
<path d="M173.534,154.74v-43.567l0.139,0.08l37.591,21.702l-0.139,0.08L173.534,154.74z M173.72,111.494v42.925l37.174-21.464
	L173.72,111.494z"/>
<path d="M179.153,155.334l-6.815-38.646l0.151,0.055l36.725,13.367l-0.123,0.103L179.153,155.334z M172.577,116.972l6.703,38.013
	l29.57-24.811L172.577,116.972z"/>
<path d="M183.508,155.073l-0.055-0.151l-12.036-33.07l34.815,6.139l-0.104,0.123L183.508,155.073z M171.701,122.09l11.872,32.617
	l22.31-26.589L171.701,122.09z"/>
<path d="M186.662,154.123l-0.08-0.139l-15.843-27.444h31.848l-0.08,0.139L186.662,154.123z M171.059,126.726l15.603,27.026
	l15.603-27.026H171.059z"/>
<path d="M188.716,152.651l-0.103-0.123l-18.343-21.862l28.26-4.983l-0.055,0.151L188.716,152.651z M170.618,130.793l18.034,21.493
	l9.594-26.365L170.618,130.793z"/>
<path d="M190.24,150.477l-0.123-0.103l-19.687-16.521l0.151-0.055l24.149-8.787L190.24,150.477z M170.795,133.918l19.318,16.211
	l4.378-24.834L170.795,133.918z"/>
<path d="M191.279,147.804l-0.139-0.08l-20.044-11.575l0.139-0.08l20.043-11.572L191.279,147.804z M171.467,136.149l19.627,11.334
	l-0.001-22.665L171.467,136.149z"/>
<path d="M191.889,144.811l-0.151-0.055l-19.591-7.133l0.123-0.103l15.969-13.397L191.889,144.811z M172.512,137.558l19.138,6.968
	l-3.539-20.055L172.512,137.558z"/>
<path d="M192.382,142.007l-18.652-3.29l12.172-14.505l0.055,0.151L192.382,142.007z M174.078,138.589l18.019,3.179l-6.26-17.192
	L174.078,138.589z"/>
<path d="M192.773,139.458h-17.077l0.08-0.139l8.457-14.65L192.773,139.458z M176.017,139.273h16.435l-8.219-14.232L176.017,139.273z
	"/>
<path d="M177.913,139.886l0.055-0.151l5.212-14.321l0.103,0.123l9.798,11.676L177.913,139.886z M183.244,125.779l-5.048,13.869
	l14.536-2.562L183.244,125.779z"/>
<path d="M179.993,140.247l2.412-13.681l10.644,8.93l-0.151,0.055L179.993,140.247z M182.532,126.915l-2.301,13.049l12.452-4.532
	L182.532,126.915z"/>
<path d="M181.885,140.551l-0.002-12.535l0.139,0.08l10.719,6.188L181.885,140.551z M182.068,128.337l0.002,11.893l10.299-5.947
	L182.068,128.337z"/>
<path d="M183.551,140.809l-1.967-11.141l0.151,0.055l10.482,3.813L183.551,140.809z M181.823,129.951l1.855,10.509l8.174-6.861
	L181.823,129.951z"/>
<path d="M184.815,140.817l-3.495-9.598l10.06,1.774L184.815,140.817z M181.604,131.457l3.275,8.994l6.152-7.332L181.604,131.457z"/>
<path d="M185.696,140.62l-4.615-7.989h9.226L185.696,140.62z M181.402,132.817l4.294,7.432l4.29-7.432H181.402z"/>
<path d="M186.217,140.261l-5.36-6.384l8.21-1.446l-0.055,0.151L186.217,140.261z M181.205,134.003l4.947,5.892l2.63-7.227
	L181.205,134.003z"/>
<path d="M186.593,139.652l-5.773-4.841l7.081-2.577L186.593,139.652z M181.186,134.876l5.281,4.428l1.197-6.785L181.186,134.876z"/>
<path d="M186.839,138.853l-5.901-3.404l5.901-3.408V138.853z M181.309,135.449l5.344,3.083v-6.17L181.309,135.449z"/>
<path d="M186.971,137.913l-5.792-2.106l4.722-3.961L186.971,137.913z M181.545,135.743l5.188,1.886l-0.958-5.434L181.545,135.743z"
	/>
<path d="M187.116,137.03l-5.496-0.968l3.588-4.275L187.116,137.03z M181.968,135.935l4.864,0.857l-1.688-4.64L181.968,135.935z"/>
<path d="M187.274,136.224h-5.054l2.528-4.378L187.274,136.224z M182.541,136.038h4.413l-2.206-3.822L182.541,136.038z"/>
<path d="M182.94,136.307l1.567-4.307l2.945,3.509L182.94,136.307z M184.571,132.365l-1.347,3.704l3.879-0.686L184.571,132.365z"/>
<path d="M183.621,136.413l0.72-4.094l3.183,2.672L183.621,136.413z M184.468,132.667l-0.609,3.462l3.3-1.203L184.468,132.667z"/>
<path d="M184.243,136.546l-0.002-3.772l3.267,1.886L184.243,136.546z M184.426,133.095l0.002,3.13l2.709-1.565L184.426,133.095z"/>
<path d="M184.793,136.71l-0.597-3.374l3.22,1.172L184.793,136.71z M184.435,133.62l0.485,2.742l2.131-1.79L184.435,133.62z"/>
<path d="M185.184,136.793l-1.067-2.927l3.068,0.539L185.184,136.793z M184.401,134.105l0.847,2.323l1.588-1.896L184.401,134.105z"/>
<path d="M185.421,136.809l-1.42-2.458h2.836L185.421,136.809z M184.323,134.537l1.098,1.901l1.095-1.901H184.323z"/>
<path d="M185.511,136.763l-1.664-1.98l2.546-0.448L185.511,136.763z M184.196,134.909l1.25,1.488l0.662-1.825L184.196,134.909z"/>
<path d="M185.563,136.598l-1.809-1.515l2.216-0.811L185.563,136.598z M184.119,135.147l1.316,1.103l0.297-1.692L184.119,135.147z"/>
<path d="M185.586,136.328l-1.868-1.079l1.866-1.078L185.586,136.328z M184.088,135.249l1.312,0.757l-0.002-1.515L184.088,135.249z"
	/>
<path d="M185.584,135.968l-1.855-0.676l1.509-1.268L185.584,135.968z M184.095,135.228l1.25,0.455l-0.233-1.311L184.095,135.228z"/>
<path d="M185.629,135.627l-1.782-0.314l1.161-1.386L185.629,135.627z M184.195,135.186l1.149,0.202l-0.4-1.097L184.195,135.186z"/>
<path d="M185.722,135.311h-1.659l0.827-1.438L185.722,135.311z M184.383,135.126h1.017l-0.51-0.882L184.383,135.126z"/>
<path d="M184.361,135.296l0.519-1.434l0.984,1.169L184.361,135.296z M184.946,134.227l-0.301,0.831l0.87-0.153L184.946,134.227z"/>
<path d="M184.646,135.329l0.243-1.383l1.078,0.906L184.646,135.329z M185.015,134.295l-0.131,0.751l0.717-0.26L185.015,134.295z"/>
<path d="M184.91,135.415l-0.003-1.295l1.126,0.648L184.91,135.415z M185.094,134.441l0.001,0.654l0.567-0.327L185.094,134.441z"/>
<path d="M185.146,135.552l-0.21-1.18l1.129,0.41L185.146,135.552z M185.175,134.657l0.097,0.548l0.426-0.358L185.175,134.657z"/>
<path d="M185.291,135.657l-0.381-1.043l1.097,0.194L185.291,135.657z M185.195,134.852l0.161,0.44l0.302-0.358L185.195,134.852z"/>
<path d="M185.347,135.728l-0.515-0.89h1.035L185.347,135.728z M185.153,135.024l0.195,0.335l0.195-0.335H185.153z"/>
<path d="M185.315,135.776l-0.614-0.738l0.946-0.164L185.315,135.776z M185.049,135.166l0.204,0.244l0.11-0.298L185.049,135.166z"/>
<path d="M185.277,135.736l-0.684-0.581l0.844-0.3L185.277,135.736z M184.958,135.222l0.194,0.165l0.045-0.25L184.958,135.222z"/>
<path d="M185.237,135.615l-0.726-0.422l0.73-0.413L185.237,135.615z M184.884,135.196l0.169,0.098l0.001-0.194L184.884,135.196z"/>
<path d="M185.195,135.417l-0.738-0.264l0.607-0.505L185.195,135.417z M184.825,135.088l0.134,0.048l-0.024-0.139L184.825,135.088z"
	/>
<path d="M185.21,135.225l-0.727-0.122l0.481-0.57L185.21,135.225z M184.835,134.974l0.095,0.016l-0.032-0.09L184.835,134.974z"/>
<path d="M184.587,135.051l0.356-0.607l0.34,0.601L184.587,135.051z M184.94,134.815l-0.028,0.047l0.054-0.001L184.94,134.815z"/>
</svg>
