<?xml version="1.0" encoding="utf-8"?>
<!-- Generator: Adobe Illustrator 22.0.1, SVG Export Plug-In . SVG Version: 6.00 Build 0)  -->
<svg version="1.0" id="レイヤー_1" xmlns="http://www.w3.org/2000/svg" xmlns:xlink="http://www.w3.org/1999/xlink" x="0px"
	 y="0px" viewBox="0 0 503.171 467.215" enable-background="new 0 0 503.171 467.215" xml:space="preserve">
<g>
	<path d="M254.38,467.215l-0.433-0.75L5.589,36.291h497.583l-0.434,0.75L254.38,467.215z M7.321,37.291L254.38,465.215
		L501.439,37.291H7.321z"/>
	<path d="M287.969,442.895l-0.557-0.663L0,99.706l441.191-77.794l-0.296,0.813L287.969,442.895z M1.879,100.389l285.742,340.537
		L439.66,23.197L1.879,100.389z"/>
	<path d="M313.145,408.55l-0.663-0.557L4.144,149.264l0.814-0.296L383.189,11.304L313.145,408.55z M6.113,149.612l306.348,257.059
		l69.442-393.835L6.113,149.612z"/>
	<path d="M330.569,367.341l-0.75-0.434L16.02,185.736L330.567,4.131L330.569,367.341z M18.02,185.736l311.548,179.872L329.567,5.864
		L18.02,185.736z"/>
	<path d="M341.062,322.091l-0.813-0.296L33.725,210.229L284.268,0L341.062,322.091z M35.695,209.882l304.082,110.678L283.584,1.88
		L35.695,209.882z"/>
	<path d="M348.824,279.737L58.771,228.595l0.557-0.663L248.089,2.97l0.296,0.814L348.824,279.737z M60.65,227.912l286.644,50.54
		L247.741,4.94L60.65,227.912z"/>
	<path d="M89.714,241.309h-0.866L221.472,11.595l0.433,0.75l132.192,228.96L89.714,241.309z M221.472,13.595L90.58,240.309
		l261.785-0.005L221.472,13.595z"/>
	<path d="M121.9,248.971l0.296-0.813l81.41-223.681l153.56,183.003L121.9,248.971z M203.954,26.447l-80.522,221.239l231.855-40.89
		L203.954,26.447z"/>
	<path d="M152.847,254.657L190.21,42.744l164.837,138.312L152.847,254.657z M190.894,44.623l-36.762,208.503l198.946-72.417
		L190.894,44.623z"/>
	<path d="M180.936,258.544l-0.003-193.836l167.867,96.916L180.936,258.544z M181.932,66.44l0.003,190.371l164.863-95.188
		L181.932,66.44z"/>
	<path d="M205.663,260.839L175.336,88.868l0.813,0.296l163.281,59.427L205.663,260.839z M176.621,90.4l29.726,168.56
		l131.115-110.021L176.621,90.4z"/>
	<path d="M224.979,259.34l-53.815-147.844l154.946,27.319L224.979,259.34z M172.696,112.781l52.631,144.59l98.904-117.873
		L172.696,112.781z"/>
	<path d="M239.178,254.821l-0.433-0.75l-70.458-122.029h141.775l-0.434,0.75L239.178,254.821z M170.02,133.042l69.158,119.779
		l69.152-119.779H170.02z"/>
	<path d="M248.686,248.013l-82.13-97.875l125.829-22.187L248.686,248.013z M168.435,150.822l79.903,95.223l42.516-116.809
		L168.435,150.822z"/>
	<path d="M255.822,238.294l-88.224-74.022l108.221-39.39L255.822,238.294z M169.569,164.619l85.57,71.796l19.396-110.001
		L169.569,164.619z"/>
	<path d="M260.77,226.558l-0.75-0.434l-89.162-51.471l89.914-51.914L260.77,226.558z M172.858,174.654l86.912,50.172l0.002-100.354
		L172.858,174.654z"/>
	<path d="M263.762,213.606l-87.966-32.012l71.712-60.173L263.762,213.606z M177.765,181.247l84.711,30.828l-15.652-88.774
		L177.765,181.247z"/>
	<path d="M266.028,201.459l-83.141-14.653l54.268-64.675L266.028,201.459z M184.767,186.121l79.73,14.052L236.807,124.1
		L184.767,186.121z"/>
	<path d="M191.478,190.421l38.078-65.954l38.077,65.95L191.478,190.421z M229.556,126.467l-36.345,62.954l72.69-0.004
		L229.556,126.467z"/>
	<path d="M200.986,192.612l23.501-64.57l44.166,52.635L200.986,192.612z M224.834,130.012l-22.316,61.315l64.256-11.333
		L224.834,130.012z"/>
	<path d="M209.908,194.291l10.77-61.071l47.502,39.859L209.908,194.291z M221.362,135.098l-10.168,57.661l55.018-20.029
		L221.362,135.098z"/>
	<path d="M218.03,195.502v-55.983l48.482,27.989L218.03,195.502z M219.03,141.251v52.518l45.482-26.261L219.03,141.251z"/>
	<path d="M225.2,196.303l-8.779-49.789l47.509,17.292L225.2,196.303z M217.706,148.046l8.178,46.377l36.077-30.27L217.706,148.046z"
		/>
	<path d="M230.792,196.01l-15.622-42.922l44.981,7.933L230.792,196.01z M216.701,154.372l14.438,39.668l27.133-32.337
		L216.701,154.372z"/>
	<path d="M234.882,194.83l-20.641-35.752h41.282L234.882,194.83z M215.974,160.078l18.908,32.752l18.909-32.752H215.974z"/>
	<path d="M237.592,192.972l-23.995-28.598l36.759-6.482L237.592,192.972z M215.476,165.058l21.769,25.943l11.58-31.824
		L215.476,165.058z"/>
	<path d="M239.632,190.211l-25.868-21.709l31.731-11.546L239.632,190.211z M215.733,168.849l23.216,19.482l5.262-29.844
		L215.733,168.849z"/>
	<path d="M241.058,186.801l-26.47-15.285l26.468-15.283L241.058,186.801z M216.588,171.515l23.47,13.553l-0.002-27.103
		L216.588,171.515z"/>
	<path d="M241.932,182.969l-26.014-9.472l21.204-17.79L241.932,182.969z M217.887,173.151l22.76,8.286l-4.208-23.85L217.887,173.151
		z"/>
	<path d="M242.646,179.357l-24.707-4.359l16.124-19.215L242.646,179.357z M219.818,174.314l21.295,3.756l-7.397-20.318
		L219.818,174.314z"/>
	<path d="M243.213,176.05h-22.752l11.373-19.703L243.213,176.05z M222.194,175.05h19.287l-9.646-16.703L222.194,175.05z"/>
	<path d="M223.32,176.697l7.061-19.403l13.275,15.819L223.32,176.697z M230.728,159.263l-5.877,16.148l16.926-2.983L230.728,159.263
		z"/>
	<path d="M226.023,177.244l3.257-18.472l14.371,12.057L226.023,177.244z M229.963,160.652l-2.655,15.061l14.372-5.23
		L229.963,160.652z"/>
	<path d="M228.505,177.702l-0.002-17.054l14.771,8.527L228.505,177.702z M229.503,162.381l0.002,13.59l11.77-6.795L229.503,162.381z
		"/>
	<path d="M230.717,178.081l-2.697-15.285l14.588,5.307L230.717,178.081z M229.305,164.328l2.096,11.874l9.236-7.752L229.305,164.328
		z"/>
	<path d="M232.432,178.127l-4.84-13.29l13.93,2.457L232.432,178.127z M229.125,166.123l3.654,10.034l6.863-8.179L229.125,166.123z"
		/>
	<path d="M233.67,177.891l-6.455-11.172h12.904L233.67,177.891z M228.947,167.719l4.723,8.172l4.717-8.172H228.947z"/>
	<path d="M234.457,177.428l-7.579-9.026l11.607-2.046L234.457,177.428z M228.759,169.086l5.351,6.374l2.845-7.818L228.759,169.086z"
		/>
	<path d="M235.058,176.631l-8.26-6.927l10.133-3.687L235.058,176.631z M228.769,170.052l5.605,4.7l1.271-7.203L228.769,170.052z"/>
	<path d="M235.488,175.572l-8.553-4.934l8.553-4.94V175.572z M228.935,170.637l5.553,3.203v-6.41L228.935,170.637z"/>
	<path d="M235.763,174.315l-8.515-3.096l6.942-5.823L235.763,174.315z M229.219,170.872l5.259,1.912l-0.971-5.509L229.219,170.872z"
		/>
	<path d="M236.038,173.114l-8.202-1.445l5.355-6.381L236.038,173.114z M229.715,170.984l4.792,0.845l-1.663-4.572L229.715,170.984z"
		/>
	<path d="M236.315,171.992h-7.67l3.836-6.643L236.315,171.992z M230.377,170.992h4.205l-2.102-3.643L230.377,170.992z"/>
	<path d="M229.625,172.206l2.42-6.652l4.548,5.42L229.625,172.206z M232.393,167.524l-1.235,3.396l3.557-0.629L232.393,167.524z"/>
	<path d="M230.574,172.435l1.133-6.446l5.012,4.206L230.574,172.435z M232.393,167.869l-0.533,3.033l2.891-1.054L232.393,167.869z"
		/>
	<path d="M231.463,172.678l-0.002-6.061l5.25,3.03L231.463,172.678z M232.461,168.349l0.002,2.597l2.248-1.299L232.461,168.349z"/>
	<path d="M232.276,172.941l-0.98-5.542l5.288,1.924L232.276,172.941z M232.582,168.931l0.377,2.13l1.655-1.391L232.582,168.931z"/>
	<path d="M232.896,173.079l-1.795-4.921l5.158,0.907L232.896,173.079z M232.634,169.444l0.607,1.666l1.139-1.359L232.634,169.444z"
		/>
	<path d="M233.326,173.112l-2.447-4.236h4.885L233.326,173.112z M232.612,169.876l0.713,1.234l0.711-1.234H232.612z"/>
	<path d="M233.571,173.041l-2.941-3.502l4.502-0.793L233.571,173.041z M232.51,170.222l0.713,0.849l0.377-1.041L232.51,170.222z"/>
	<path d="M233.766,172.799l-3.287-2.754l4.027-1.473L233.766,172.799z M232.447,170.39l0.633,0.53l0.143-0.813L232.447,170.39z"/>
	<path d="M233.916,172.405l-3.494-2.019l3.49-2.018L233.916,172.405z M232.42,170.387l0.494,0.285v-0.571L232.42,170.387z"/>
	<path d="M234.024,171.876l-3.576-1.302l2.911-2.445L234.024,171.876z M232.416,170.226l0.32,0.116l-0.06-0.335L232.416,170.226z"/>
	<path d="M234.175,171.353l-3.544-0.624l2.309-2.757L234.175,171.353z M232.508,170.044l0.132,0.023l-0.046-0.126L232.508,170.044z"
		/>
	<polygon points="234.368,170.847 230.958,170.847 232.658,167.892 	"/>
	<polygon points="231.408,170.938 232.513,167.889 234.602,170.375 	"/>
	<polygon points="231.861,171.073 232.394,168.03 234.767,170.021 	"/>
	<polygon points="232.303,171.258 232.296,168.305 234.863,169.782 	"/>
	<polygon points="232.719,171.487 232.222,168.699 234.89,169.667 	"/>
	<polygon points="233.029,171.651 232.096,169.095 234.783,169.571 	"/>
	<polygon points="233.231,171.751 231.922,169.487 234.551,169.487 	"/>
	<polygon points="233.322,171.803 231.702,169.856 234.198,169.424 	"/>
	<polygon points="233.404,171.72 231.53,170.131 233.842,169.309 	"/>
	<polygon points="233.475,171.512 231.412,170.311 233.486,169.14 	"/>
	<polygon points="233.529,171.18 231.354,170.399 233.145,168.911 	"/>
	<polygon points="233.642,170.844 231.422,170.469 232.889,168.731 	"/>
	<polygon points="231.606,170.528 232.73,168.607 233.807,170.507 	"/>
</g>
</svg>
