<?xml version="1.0" encoding="utf-8"?>
<!-- Generator: Adobe Illustrator 22.0.1, SVG Export Plug-In . SVG Version: 6.00 Build 0)  -->
<svg version="1.0" xmlns="http://www.w3.org/2000/svg" xmlns:xlink="http://www.w3.org/1999/xlink" x="0px" y="0px"
	 viewBox="0 0 400 345.213" enable-background="new 0 0 400 345.213" xml:space="preserve">
<g id="BACKGROUND">
	<path d="M200.033,345.213h-1.731l-0.519-1.522C194.473,337.131,68.495,118.664,2.08,3.602L0,0h400l-2.04,3.588
		c-0.484,0.851-48.941,86.079-97.057,170.21c-28.261,49.416-50.876,88.789-67.218,117.027
		c-9.705,16.772-17.278,29.753-22.508,38.583C201.816,345.213,201.784,345.213,200.033,345.213z M8.317,4.803
		c44.817,77.644,174.079,301.671,191.928,333.481C216.797,311.785,329.536,114.21,391.746,4.803H8.317z"/>
	<g>
		<path d="M301.101,173.483H98.893l2.08-3.602c32.579-56.442,94.343-163.549,96.815-168.232l0.495-1.487l1.739-0.007
			c1.574,0,1.574,0,6.56,8.419c2.591,4.375,6.342,10.805,11.15,19.111c8.091,13.982,19.288,33.476,33.281,57.942
			c23.82,41.652,47.811,83.846,48.051,84.268L301.101,173.483z M107.21,168.681h185.637
			C267.91,124.833,211.554,26.007,200.162,7.176C190.045,25.079,145.756,101.899,107.21,168.681z"/>
	</g>
	<g>
		<rect x="150.777" y="-83.488" transform="matrix(0.494 -0.8695 0.8695 0.494 1.7958 175.574)" width="1.921" height="339.464"/>
	</g>
	<g>
		<rect x="78.225" y="85.964" transform="matrix(0.8678 -0.4969 0.4969 0.8678 -10.3684 134.8804)" width="340.14" height="1.922"/>
	</g>
	<g>
		<g>
			<rect x="94.957" y="29.091" transform="matrix(0.8727 -0.4882 0.4882 0.8727 4.651 77.9448)" width="113.738" height="1.921"/>
		</g>
	</g>
	<g>
		<g>
			<rect x="101.228" y="56.94" width="1.921" height="112.874"/>
		</g>
	</g>
	<g>
		<g>
			
				<rect x="249.339" y="-25.913" transform="matrix(0.4996 -0.8663 0.8663 0.4996 98.6814 232.1712)" width="1.921" height="113.166"/>
		</g>
	</g>
	<g>
		<g>
			<rect x="297.339" y="58.052" width="1.921" height="114.98"/>
		</g>
	</g>
	<g>
		<rect x="199.055" y="0.102" width="1.921" height="342.696"/>
	</g>
	<g>
		
			<rect x="150.142" y="144.934" transform="matrix(0.5813 -0.8137 0.8137 0.5813 -103.5813 208.79)" width="1.92" height="120.232"/>
	</g>
	<g>
		
			<rect x="188.179" y="204.09" transform="matrix(0.8137 -0.5812 0.5812 0.8137 -72.9343 182.5145)" width="120.232" height="1.92"/>
	</g>
</g>
<g id="VEXELS">
</g>
</svg>
