<?xml version="1.0" encoding="utf-8"?>
<!-- Generator: Adobe Illustrator 22.0.1, SVG Export Plug-In . SVG Version: 6.00 Build 0)  -->
<svg version="1.0" id="レイヤー_1" xmlns="http://www.w3.org/2000/svg" xmlns:xlink="http://www.w3.org/1999/xlink" x="0px"
	 y="0px" viewBox="0 0 262.057 243.33" enable-background="new 0 0 262.057 243.33" xml:space="preserve">
<g>
	<path d="M132.484,243.33l-0.225-0.391L2.91,18.9h259.146l-0.226,0.391L132.484,243.33z M3.813,19.421l128.671,222.867
		L261.154,19.421H3.813z"/>
	<path d="M149.977,230.664l-0.29-0.345L0,51.928l229.777-40.516l-0.154,0.424L149.977,230.664z M0.979,52.284l148.818,177.355
		L228.98,12.081L0.979,52.284z"/>
	<path d="M163.089,212.777l-0.345-0.29L2.158,77.738l0.424-0.154L199.569,5.887L163.089,212.777z M3.184,77.919l159.549,133.879
		L198.899,6.685L3.184,77.919z"/>
	<path d="M172.163,191.315l-0.391-0.226L8.343,96.733L172.162,2.151L172.163,191.315z M9.385,96.733l162.258,93.679L171.642,3.054
		L9.385,96.733z"/>
	<path d="M177.628,167.748l-0.424-0.154L17.564,109.489L148.05,0L177.628,167.748z M18.59,109.308l158.369,57.642L147.693,0.979
		L18.59,109.308z"/>
	<path d="M181.671,145.69L30.608,119.055l0.29-0.345L129.207,1.547l0.154,0.424L181.671,145.69z M31.587,118.699l149.287,26.322
		L129.026,2.573L31.587,118.699z"/>
	<path d="M46.724,125.676h-0.451L115.345,6.038l0.225,0.391l68.847,119.245L46.724,125.676z M115.345,7.08l-68.17,118.075
		l136.34-0.003L115.345,7.08z"/>
	<path d="M63.487,129.667l0.154-0.424L106.04,12.748l79.975,95.31L63.487,129.667z M106.221,13.774L64.285,128.997l120.752-21.296
		L106.221,13.774z"/>
	<path d="M79.604,132.628L99.063,22.261l85.849,72.035L79.604,132.628z M99.419,23.24L80.273,131.83l103.613-37.716L99.419,23.24z"
		/>
	<path d="M94.233,134.652L94.231,33.7l87.427,50.475L94.233,134.652z M94.752,34.603l0.002,99.147l85.863-49.575L94.752,34.603z"/>
	<path d="M107.111,135.847L91.317,46.283l0.424,0.154l85.039,30.95L107.111,135.847z M91.986,47.081l15.481,87.788l68.286-57.3
		L91.986,47.081z"/>
	<path d="M117.171,135.067L89.144,58.068l80.698,14.228L117.171,135.067z M89.942,58.737l27.411,75.304l51.51-61.39L89.942,58.737z"
		/>
	<path d="M124.566,132.713l-0.225-0.391L87.646,68.769h73.838l-0.226,0.391L124.566,132.713z M88.548,69.289l36.018,62.382
		l36.015-62.382H88.548z"/>
	<path d="M129.518,129.168L86.744,78.193l65.533-11.555L129.518,129.168z M87.723,78.549l41.614,49.593l22.143-60.835L87.723,78.549
		z"/>
	<path d="M133.235,124.106L87.287,85.554l56.362-20.515L133.235,124.106z M88.313,85.735l44.566,37.392l10.101-57.29L88.313,85.735z
		"/>
	<path d="M135.811,117.994l-0.391-0.226L88.984,90.961l46.828-27.037L135.811,117.994z M90.026,90.961l45.265,26.13l0.001-52.265
		L90.026,90.961z"/>
	<path d="M137.37,111.248L91.556,94.576l37.349-31.339L137.37,111.248z M92.582,94.395l44.119,16.056l-8.152-46.235L92.582,94.395z"
		/>
	<path d="M138.55,104.922l-43.3-7.631l28.263-33.684L138.55,104.922z M96.228,96.934l41.524,7.319l-14.421-39.62L96.228,96.934z"/>
	<path d="M99.724,99.173l19.831-34.35l19.831,34.348L99.724,99.173z M119.555,65.865l-18.929,32.787l37.858-0.002L119.555,65.865z"
		/>
	<path d="M104.675,100.314l12.24-33.629l23.002,27.413L104.675,100.314z M117.096,67.711l-11.623,31.933l33.465-5.903
		L117.096,67.711z"/>
	<path d="M109.322,101.189l5.609-31.807l24.74,20.759L109.322,101.189z M115.287,70.361l-5.296,30.031l28.654-10.431L115.287,70.361
		z"/>
	<path d="M113.552,101.819V72.663l25.25,14.577L113.552,101.819z M114.073,73.565v27.352l23.688-13.677L114.073,73.565z"/>
	<path d="M117.287,102.236l-4.572-25.93l24.743,9.006L117.287,102.236z M113.384,77.104l4.259,24.154l18.789-15.765L113.384,77.104z
		"/>
	<path d="M120.199,102.084l-8.136-22.354l23.427,4.131L120.199,102.084z M112.86,80.399l7.52,20.66l14.131-16.842L112.86,80.399z"/>
	<path d="M122.329,101.469l-10.75-18.62h21.5L122.329,101.469z M112.481,83.37l9.848,17.058l9.848-17.058H112.481z"/>
	<path d="M123.74,100.502l-12.497-14.894l19.144-3.376L123.74,100.502z M112.222,85.964l11.337,13.512l6.031-16.574L112.222,85.964z
		"/>
	<path d="M124.803,99.064L111.33,87.757l16.526-6.013L124.803,99.064z M112.356,87.938l12.091,10.147l2.74-15.543L112.356,87.938z"
		/>
	<path d="M125.545,97.288l-13.786-7.961l13.785-7.959L125.545,97.288z M112.801,89.327l12.223,7.058l-0.001-14.116L112.801,89.327z"
		/>
	<path d="M126.001,95.292l-13.548-4.933l11.043-9.265L126.001,95.292z M113.478,90.179l11.854,4.315l-2.192-12.421L113.478,90.179z"
		/>
	<path d="M126.372,93.411l-12.868-2.27l8.398-10.007L126.372,93.411z M114.483,90.785l11.091,1.956l-3.853-10.582L114.483,90.785z"
		/>
	<path d="M126.668,91.689h-11.849l5.923-10.261L126.668,91.689z M115.721,91.168h10.045l-5.024-8.699L115.721,91.168z"/>
	<path d="M116.307,92.025l3.677-10.105l6.914,8.239L116.307,92.025z M120.165,82.946l-3.061,8.41l8.815-1.554L120.165,82.946z"/>
	<path d="M117.715,92.311l1.696-9.62l7.485,6.279L117.715,92.311z M119.767,83.669l-1.383,7.844l7.485-2.724L119.767,83.669z"/>
	<path d="M119.008,92.549l-0.001-8.882l7.693,4.441L119.008,92.549z M119.528,84.569l0.001,7.078l6.13-3.539L119.528,84.569z"/>
	<path d="M120.16,92.746l-1.405-7.961l7.598,2.764L120.16,92.746z M119.424,85.584l1.091,6.184l4.81-4.037L119.424,85.584z"/>
	<path d="M121.053,92.77l-2.521-6.921l7.255,1.28L121.053,92.77z M119.331,86.519l1.903,5.226l3.574-4.26L119.331,86.519z"/>
	<path d="M121.698,92.647l-3.362-5.819h6.721L121.698,92.647z M119.238,87.349l2.46,4.256l2.457-4.256H119.238z"/>
	<path d="M122.108,92.406l-3.947-4.701l6.045-1.066L122.108,92.406z M119.14,88.062l2.787,3.319l1.482-4.072L119.14,88.062z"/>
	<path d="M122.42,91.991l-4.302-3.608l5.277-1.92L122.42,91.991z M119.145,88.564l2.919,2.448l0.662-3.751L119.145,88.564z"/>
	<path d="M122.644,91.439l-4.454-2.569l4.454-2.573V91.439z M119.232,88.869l2.892,1.668v-3.338L119.232,88.869z"/>
	<path d="M122.788,90.785l-4.435-1.612l3.616-3.033L122.788,90.785z M119.38,88.992l2.739,0.996l-0.506-2.869L119.38,88.992z"/>
	<path d="M122.931,90.159l-4.272-0.753l2.789-3.323L122.931,90.159z M119.638,89.05l2.496,0.44l-0.866-2.381L119.638,89.05z"/>
	<path d="M123.075,89.575h-3.995l1.998-3.46L123.075,89.575z M119.983,89.055h2.19l-1.095-1.897L119.983,89.055z"/>
	<path d="M119.591,89.687l1.26-3.465l2.369,2.823L119.591,89.687z M121.032,87.248l-0.643,1.769l1.852-0.328L121.032,87.248z"/>
	<path d="M120.085,89.806l0.59-3.357l2.61,2.19L120.085,89.806z M121.032,87.428l-0.278,1.579l1.505-0.549L121.032,87.428z"/>
	<path d="M120.548,89.932l-0.001-3.156l2.734,1.578L120.548,89.932z M121.068,87.678l0.001,1.352l1.171-0.676L121.068,87.678z"/>
	<path d="M120.971,90.069l-0.511-2.887l2.754,1.002L120.971,90.069z M121.131,87.981l0.196,1.11l0.862-0.724L121.131,87.981z"/>
	<path d="M121.294,90.141l-0.935-2.563l2.686,0.472L121.294,90.141z M121.158,88.248l0.316,0.868l0.593-0.708L121.158,88.248z"/>
	<path d="M121.519,90.158l-1.275-2.206h2.544L121.519,90.158z M121.146,88.473l0.371,0.643l0.37-0.643H121.146z"/>
	<path d="M121.646,90.121l-1.532-1.824l2.345-0.413L121.646,90.121z M121.094,88.653l0.371,0.442l0.196-0.542L121.094,88.653z"/>
	<path d="M121.748,89.995l-1.712-1.434l2.097-0.767L121.748,89.995z M121.061,88.741l0.33,0.276l0.074-0.424L121.061,88.741z"/>
	<path d="M121.826,89.79l-1.82-1.051l1.818-1.051L121.826,89.79z M121.047,88.739l0.257,0.149V88.59L121.047,88.739z"/>
	<path d="M121.882,89.515l-1.863-0.678l1.516-1.274L121.882,89.515z M121.045,88.656l0.167,0.061l-0.031-0.174L121.045,88.656z"/>
	<path d="M121.961,89.242l-1.846-0.325l1.202-1.436L121.961,89.242z M121.092,88.561l0.069,0.012l-0.024-0.066L121.092,88.561z"/>
	<polygon points="122.061,88.979 120.285,88.979 121.171,87.44 	"/>
	<polygon points="120.52,89.026 121.095,87.438 122.183,88.733 	"/>
	<polygon points="120.755,89.096 121.033,87.511 122.269,88.548 	"/>
	<polygon points="120.986,89.193 120.982,87.655 122.319,88.424 	"/>
	<polygon points="121.202,89.312 120.943,87.86 122.333,88.364 	"/>
	<polygon points="121.364,89.397 120.878,88.066 122.278,88.314 	"/>
	<polygon points="121.469,89.45 120.787,88.271 122.156,88.271 	"/>
	<polygon points="121.517,89.477 120.673,88.463 121.973,88.238 	"/>
	<polygon points="121.559,89.433 120.583,88.606 121.787,88.178 	"/>
	<polygon points="121.596,89.325 120.522,88.7 121.602,88.09 	"/>
	<polygon points="121.624,89.152 120.491,88.746 121.424,87.971 	"/>
	<polygon points="121.683,88.977 120.527,88.782 121.291,87.877 	"/>
	<polygon points="120.623,88.812 121.208,87.812 121.769,88.802 	"/>
</g>
</svg>
