<?xml version="1.0" encoding="utf-8"?>
<!-- Generator: Adobe Illustrator 22.0.1, SVG Export Plug-In . SVG Version: 6.00 Build 0)  -->
<svg version="1.1" id="レイヤー_1" xmlns="http://www.w3.org/2000/svg" xmlns:xlink="http://www.w3.org/1999/xlink" x="0px"
	 y="0px" viewBox="0 0 434.6 443.3" style="enable-background:new 0 0 434.6 443.3;" xml:space="preserve">
<style type="text/css">
	.st0{opacity:0.8;}
	.st1{opacity:0.3;}
</style>
<g class="st0">
	<g id="triangle36_214_">
		<path d="M127.4,169.6c-0.1,0-0.1,0-0.2,0l-17.8-9.9c-0.1-0.1-0.2-0.2-0.2-0.4c0-0.1,0.1-0.3,0.2-0.3l22.6-9.2
			c0.1-0.1,0.3,0,0.4,0.1c0.1,0.1,0.2,0.2,0.1,0.4l-4.8,19.1c0,0.1-0.1,0.2-0.2,0.3C127.5,169.6,127.4,169.6,127.4,169.6z
			 M110.4,159.4l16.7,9.3l4.5-17.9L110.4,159.4z"/>
	</g>
	<g id="triangle36_213_">
		<path d="M109.5,159.7c-0.1,0-0.2-0.1-0.3-0.2c-0.1-0.1-0.1-0.3,0-0.5l27.3-29.7c0.1-0.1,0.3-0.2,0.5-0.1c0.2,0.1,0.2,0.2,0.2,0.4
			l-4.7,20.5c0,0.1-0.1,0.2-0.2,0.3l-22.6,9.2C109.6,159.7,109.6,159.7,109.5,159.7z M136.2,130.9l-25.2,27.4l20.9-8.5L136.2,130.9z
			"/>
	</g>
	<g id="triangle36_212_">
		<path d="M132.1,150.5c0,0-0.1,0-0.1,0c-0.2-0.1-0.3-0.3-0.2-0.4l4.7-20.5c0-0.1,0.1-0.1,0.1-0.2l24.2-23.5c0.1-0.1,0.4-0.1,0.5,0
			c0.1,0.1,0.2,0.3,0.1,0.5l-28.9,44C132.4,150.4,132.3,150.5,132.1,150.5z M137.2,129.8l-4.2,18.3l25.9-39.3L137.2,129.8z"/>
	</g>
	<g id="triangle36_211_">
		<path d="M132.1,150.5c-0.1,0-0.2,0-0.3-0.1c-0.1-0.1-0.1-0.3,0-0.4l28.9-44c0.1-0.1,0.2-0.2,0.4-0.2l59.6,9.1
			c0.2,0,0.3,0.2,0.3,0.3c0,0.2-0.1,0.3-0.2,0.4l-88.5,34.8C132.2,150.5,132.2,150.5,132.1,150.5z M161.2,106.5l-28.1,42.8
			l86.1-33.9L161.2,106.5z"/>
	</g>
	<g id="triangle36_210_">
		<path d="M220.6,115.6C220.6,115.6,220.6,115.6,220.6,115.6l-59.6-9.1c-0.1,0-0.2-0.1-0.3-0.2c-0.1-0.1-0.1-0.2,0-0.3l6.1-20.5
			c0-0.1,0.1-0.2,0.2-0.2c0.1,0,0.2,0,0.3,0l53.5,29.6c0.2,0,0.3,0.2,0.3,0.4C221,115.5,220.9,115.6,220.6,115.6L220.6,115.6z
			 M161.5,105.8l57.1,8.7l-51.3-28.4L161.5,105.8z"/>
	</g>
	<g id="triangle36_209_">
		<path d="M82,203.6c-0.1,0-0.2,0-0.3-0.1c-0.1-0.1-0.2-0.3-0.1-0.5l27.6-43.9c0.1-0.2,0.3-0.2,0.5-0.1l17.8,9.9
			c0.1,0.1,0.2,0.2,0.2,0.3c0,0.1,0,0.2-0.1,0.3l-45.4,34C82.1,203.6,82,203.6,82,203.6z M109.7,159.8l-26.3,41.9l43.3-32.4
			L109.7,159.8z"/>
	</g>
	<g id="triangle36_208_">
		<path d="M110.3,246.7c-0.1,0-0.2-0.1-0.3-0.2l-28.3-43.1c-0.1-0.2-0.1-0.4,0.1-0.5l45.4-34c0.1-0.1,0.3-0.1,0.4,0
			c0.1,0.1,0.2,0.2,0.2,0.4l-17.1,77.1C110.6,246.5,110.5,246.6,110.3,246.7C110.3,246.7,110.3,246.7,110.3,246.7z M82.5,203.3
			l27.7,42l16.7-75.2L82.5,203.3z"/>
	</g>
	<g id="triangle36_207_">
		<path d="M110.3,246.7c-0.1,0-0.2,0-0.2-0.1c-0.1-0.1-0.2-0.2-0.1-0.4l17.1-77.1c0-0.2,0.2-0.3,0.4-0.3l112,3.8
			c0.2,0,0.3,0.1,0.4,0.3c0,0.2,0,0.3-0.2,0.4l-129,73.3C110.4,246.6,110.4,246.7,110.3,246.7z M127.7,169.6l-16.8,75.9L238,173.3
			L127.7,169.6z"/>
	</g>
	<g id="triangle36_206_">
		<path d="M239.4,173.3C239.4,173.3,239.4,173.3,239.4,173.3C239.3,173.3,239.3,173.3,239.4,173.3l-112-3.8c-0.1,0-0.2-0.1-0.3-0.1
			c-0.1-0.1-0.1-0.2-0.1-0.3l4.8-19.1c0-0.2,0.2-0.3,0.4-0.3l107.2,22.9c0.2,0,0.4,0.2,0.4,0.4C239.7,173.2,239.6,173.3,239.4,173.3
			z M127.8,168.9l107.3,3.6l-102.7-21.9L127.8,168.9z"/>
	</g>
	<g id="triangle36_205_">
		<path d="M239.3,173.3C239.3,173.3,239.3,173.3,239.3,173.3l-107.3-22.9c-0.2,0-0.3-0.2-0.3-0.3c0-0.2,0.1-0.3,0.2-0.4l88.5-34.8
			c0.1,0,0.2,0,0.3,0c0.1,0,0.2,0.1,0.2,0.2l18.7,57.6c0,0.1,0.1,0.1,0.1,0.2C239.7,173.2,239.6,173.4,239.3,173.3
			C239.4,173.3,239.3,173.3,239.3,173.3z M133.4,150l105.3,22.5l-18.4-56.7L133.4,150z"/>
	</g>
	<g id="triangle36_204_">
		<path d="M239.3,173.3c-0.1,0-0.2-0.1-0.3-0.2c-0.1-0.1-0.1-0.2,0-0.4l25-62c0.1-0.2,0.2-0.2,0.4-0.2c0.2,0,0.3,0.1,0.3,0.3
			l14.1,60c0,0.1,0,0.2-0.1,0.3c-0.1,0.1-0.2,0.1-0.3,0.1L239.3,173.3C239.4,173.3,239.4,173.3,239.3,173.3z M264.2,112.2
			l-24.3,60.3l38-1.9L264.2,112.2z"/>
	</g>
	<g id="triangle36_203_">
		<path d="M239.3,173.3C239.3,173.3,239.3,173.3,239.3,173.3c-0.2,0-0.3-0.1-0.4-0.3l-18.7-57.7c0-0.1,0-0.2,0-0.3
			c0.1-0.1,0.2-0.2,0.3-0.2l43.7-4.2c0.1,0,0.3,0,0.3,0.1c0.1,0.1,0.1,0.2,0,0.4l-25,62C239.6,173.3,239.5,173.3,239.3,173.3z
			 M221.1,115.6l18.2,56.3l24.3-60.4L221.1,115.6z"/>
	</g>
	<g id="triangle36_202_">
		<path d="M110.3,246.7c-0.2,0-0.3-0.1-0.4-0.3c-0.1-0.2,0-0.4,0.2-0.4l129-73.3c0.1-0.1,0.3-0.1,0.4,0l61.6,51.5
			c0.1,0.1,0.2,0.3,0.1,0.4c0,0.1-0.2,0.2-0.3,0.3L110.3,246.7C110.3,246.7,110.3,246.7,110.3,246.7z M239.3,173.4l-127.2,72.3
			l188-21.5L239.3,173.4z"/>
	</g>
	<g id="triangle36_201_">
		<path d="M301,224.8c-0.1,0-0.2,0-0.2-0.1l-61.6-51.5c-0.1-0.1-0.2-0.3-0.1-0.4c0-0.1,0.2-0.2,0.3-0.3l39-2c0.1,0,0.3,0.1,0.4,0.2
			l22.6,53.4c0.1,0.1,0.1,0.2,0.1,0.2C301.4,224.7,301.2,224.9,301,224.8L301,224.8z M240.3,173.3l59.7,49.9l-21.9-51.8L240.3,173.3
			z"/>
	</g>
	<g id="triangle36_200_">
		<path d="M324.6,225.7C324.6,225.7,324.6,225.7,324.6,225.7l-23.6-0.8c-0.1,0-0.3-0.1-0.3-0.2L278,171.1c-0.1-0.2,0-0.4,0.1-0.5
			c0.2-0.1,0.4-0.1,0.5,0.1l46.2,54.3c0.1,0.1,0.1,0.3,0.1,0.4C324.9,225.6,324.7,225.7,324.6,225.7z M301.2,224.1l22.5,0.8
			l-44.1-51.8L301.2,224.1z"/>
	</g>
	<g id="triangle36_199_">
		<path d="M109.5,159.7c-0.1,0-0.1,0-0.2-0.1c-0.2-0.1-0.2-0.3-0.1-0.5l18.8-45.5c0.1-0.1,0.2-0.2,0.3-0.2c0.1,0,0.3,0.1,0.3,0.2
			l8.6,15.7c0.1,0.1,0.1,0.3-0.1,0.4l-27.3,29.7C109.7,159.7,109.6,159.7,109.5,159.7z M128.3,114.7l-17.7,42.8l25.7-28L128.3,114.7
			z"/>
	</g>
	<g id="triangle36_198_">
		<path d="M136.9,130C136.9,130,136.8,130,136.9,130c-0.2,0-0.3-0.1-0.3-0.2l-8.6-15.7c-0.1-0.1-0.1-0.2,0-0.3
			c0-0.1,0.1-0.2,0.3-0.2l32.8-7.7c0.2,0,0.3,0,0.4,0.2c0.1,0.1,0.1,0.3-0.1,0.4l-24.2,23.5C137.1,130,137,130,136.9,130z
			 M128.9,114.1L137,129l22.8-22.2L128.9,114.1z"/>
	</g>
	<g id="triangle36_197_">
		<path d="M128.3,114.2c-0.1,0-0.3-0.1-0.3-0.2c-0.1-0.2,0-0.4,0.1-0.5l38.8-28.3c0.1-0.1,0.3-0.1,0.4,0c0.1,0.1,0.2,0.3,0.1,0.4
			l-6.1,20.5c0,0.1-0.1,0.2-0.3,0.3L128.3,114.2C128.3,114.2,128.3,114.2,128.3,114.2z M166.5,86.6L130,113.1l30.7-7.3L166.5,86.6z"
			/>
	</g>
	<g id="triangle36_196_">
		<path d="M220.6,115.6c-0.1,0-0.1,0-0.2,0L167,85.9c-0.1-0.1-0.2-0.2-0.2-0.3c0-0.1,0.1-0.3,0.2-0.3l51.7-25.6
			c0.1-0.1,0.2-0.1,0.4,0c0.1,0.1,0.2,0.2,0.2,0.3l1.8,55.2c0,0.1-0.1,0.3-0.2,0.3C220.8,115.6,220.7,115.6,220.6,115.6z
			 M167.9,85.6l52.3,29l-1.7-54L167.9,85.6z"/>
	</g>
	<g id="triangle36_195_">
		<path d="M167.1,86c-0.1,0-0.2,0-0.2-0.1c-0.1-0.1-0.2-0.2-0.1-0.4l6.4-32c0-0.2,0.2-0.3,0.4-0.3l45.4,6.5c0.2,0,0.3,0.1,0.3,0.3
			c0,0.2-0.1,0.3-0.2,0.4l-51.7,25.6C167.3,86,167.2,86,167.1,86z M173.8,54l-6.2,30.9l50-24.7L173.8,54z"/>
	</g>
	<g id="triangle36_194_">
		<path d="M220.6,115.6c-0.1,0-0.2,0-0.2-0.1c-0.1-0.1-0.1-0.2-0.1-0.3l-1.8-55.2c0-0.2,0.1-0.3,0.2-0.4c0.1-0.1,0.3,0,0.4,0.1
			l45.4,51c0.1,0.1,0.1,0.3,0.1,0.4c-0.1,0.1-0.2,0.2-0.3,0.2L220.6,115.6C220.7,115.6,220.7,115.6,220.6,115.6z M219.3,61.1
			l1.7,53.8l42.5-4.1L219.3,61.1z"/>
	</g>
	<g id="triangle36_193_">
		<path d="M218.9,60.4C218.9,60.4,218.8,60.4,218.9,60.4L173.5,54c-0.2,0-0.3-0.2-0.3-0.4l0.4-8.8c0-0.1,0.1-0.2,0.2-0.3
			c0.1-0.1,0.2-0.1,0.3,0l44.9,15.2c0.2,0,0.3,0.2,0.3,0.4C219.3,60.3,219.1,60.4,218.9,60.4C218.9,60.4,218.9,60.4,218.9,60.4z
			 M173.9,53.3l41,5.8l-40.7-13.8L173.9,53.3z"/>
	</g>
	<g id="triangle36_192_">
		<path d="M218.9,60.4c0,0-0.1,0-0.1,0l-45-15.3c-0.1,0-0.2-0.2-0.3-0.3c0-0.2,0.1-0.3,0.2-0.4l34.5-16.6c0.1,0,0.2,0,0.3,0
			c0.1,0,0.2,0.1,0.2,0.2l10.4,31.7c0,0.1,0.1,0.1,0.1,0.2C219.3,60.3,219.1,60.4,218.9,60.4C218.9,60.4,218.9,60.4,218.9,60.4z
			 M174.9,44.7l43.4,14.7l-10.1-30.7L174.9,44.7z"/>
	</g>
	<g id="triangle36_191_">
		<path d="M264.3,111.4c-0.1,0-0.2,0-0.3-0.1l-45.4-51c-0.1-0.1-0.1-0.2-0.1-0.3c0-0.1,0.1-0.2,0.1-0.3l72.9-59.7
			c0.1-0.1,0.3-0.1,0.4,0c0.1,0.1,0.2,0.3,0.2,0.4l-27.4,110.6C264.6,111.2,264.5,111.3,264.3,111.4
			C264.4,111.4,264.3,111.4,264.3,111.4z M219.4,60.1l44.7,50.1l27-108.9L219.4,60.1z"/>
	</g>
	<g id="triangle36_190_">
		<path d="M218.9,60.4c0,0-0.1,0-0.1,0c-0.1,0-0.2-0.1-0.3-0.2l-10.5-31.8c-0.1-0.2,0-0.4,0.2-0.5L291.6,0c0.2-0.1,0.4,0,0.4,0.2
			c0.1,0.2,0,0.4-0.1,0.5l-72.9,59.7C219,60.4,219,60.4,218.9,60.4z M208.9,28.4l10.2,31l70.9-58L208.9,28.4z"/>
	</g>
	<g id="triangle36_189_">
		<path d="M300.3,331.4c-0.1,0-0.1,0-0.2,0l-190-84.8c-0.2-0.1-0.2-0.2-0.2-0.4c0-0.2,0.2-0.3,0.3-0.3l190.7-21.8
			c0.1,0,0.2,0,0.3,0.1c0.1,0.1,0.1,0.2,0.1,0.3L300.7,331c0,0.1-0.1,0.2-0.2,0.3C300.5,331.4,300.4,331.4,300.3,331.4z
			 M111.7,246.5l188.3,84l0.6-105.6L111.7,246.5z"/>
	</g>
	<g id="triangle36_188_">
		<path d="M110.3,246.7C110.3,246.7,110.2,246.7,110.3,246.7l-11.6-2.8c-0.1,0-0.2-0.1-0.3-0.2l-16.8-40.3c-0.1-0.2,0-0.4,0.2-0.5
			c0.2-0.1,0.4,0,0.5,0.1l28.3,43.1c0.1,0.1,0.1,0.3,0,0.4C110.5,246.6,110.4,246.7,110.3,246.7z M99,243.2l10.4,2.5l-25.6-38.9
			L99,243.2z"/>
	</g>
	<g id="triangle36_187_">
		<path d="M370.6,107.3c-0.1,0-0.2-0.1-0.3-0.2L291.5,0.6c-0.1-0.1-0.1-0.3,0-0.5c0.1-0.1,0.3-0.2,0.5-0.1l103.7,61.5
			c0.2,0.1,0.2,0.3,0.1,0.5L371,107.1C370.9,107.3,370.8,107.3,370.6,107.3C370.7,107.3,370.7,107.3,370.6,107.3z M293.2,1.6
			l77.4,104.6L395,62L293.2,1.6z"/>
	</g>
	<g id="triangle36_186_">
		<path d="M264.3,111.4c-0.1,0-0.2-0.1-0.3-0.1c-0.1-0.1-0.1-0.2-0.1-0.3L291.4,0.3c0-0.1,0.1-0.2,0.3-0.3c0.1,0,0.3,0,0.4,0.1
			l78.9,106.6c0.1,0.1,0.1,0.3,0,0.4c-0.1,0.1-0.2,0.2-0.3,0.2L264.3,111.4C264.3,111.4,264.3,111.4,264.3,111.4z M291.9,1.2
			l-27.1,109.4l105.1-4L291.9,1.2z"/>
	</g>
	<g id="triangle36_185_">
		<path d="M310.9,346.4c-0.1,0-0.2-0.1-0.3-0.2l-10.6-15c-0.1-0.1-0.1-0.3,0-0.4c0.1-0.1,0.3-0.2,0.4-0.1l10.9,3.5
			c0.2,0.1,0.3,0.2,0.3,0.4l-0.3,11.5c0,0.2-0.1,0.3-0.3,0.3C311,346.4,311,346.4,310.9,346.4z M301.3,331.7l9.3,13.1l0.3-10.1
			L301.3,331.7z"/>
	</g>
	<g id="triangle36_184_">
		<path d="M311.2,334.9c0,0-0.1,0-0.1,0l-10.9-3.5c-0.2-0.1-0.3-0.2-0.3-0.4l14.9-83c0-0.2,0.2-0.3,0.4-0.3c0.2,0,0.3,0.2,0.3,0.4
			l-4,86.5c0,0.1-0.1,0.2-0.2,0.3C311.4,334.9,311.3,334.9,311.2,334.9z M300.8,330.8l10.1,3.2l3.7-80.3L300.8,330.8z"/>
	</g>
	<g id="triangle36_183_">
		<path d="M300.3,331.4C300.3,331.4,300.3,331.4,300.3,331.4c-0.2,0-0.4-0.2-0.4-0.4l0.6-106.6c0-0.2,0.1-0.3,0.3-0.4
			c0.2,0,0.3,0,0.4,0.2l14.2,23.6c0,0.1,0.1,0.2,0,0.3l-14.9,83C300.7,331.3,300.5,331.4,300.3,331.4z M301.3,225.8l-0.6,100.9
			l14.1-78.6L301.3,225.8z"/>
	</g>
	<g id="triangle36_182_">
		<path d="M315.2,248.4c-0.1,0-0.3-0.1-0.3-0.2l-14.2-23.6c-0.1-0.1-0.1-0.3,0-0.4c0.1-0.1,0.2-0.2,0.3-0.2l23.6,0.8
			c0.1,0,0.2,0.1,0.3,0.2c0.1,0.1,0.1,0.2,0,0.3l-9.4,22.7C315.5,248.3,315.4,248.4,315.2,248.4
			C315.2,248.4,315.2,248.4,315.2,248.4z M301.6,224.9l13.5,22.3l8.9-21.5L301.6,224.9z"/>
	</g>
	<g id="triangle36_181_">
		<path d="M393.8,135.2c-0.1,0-0.2,0-0.3-0.1l-23.1-27.8c-0.1-0.1-0.1-0.2-0.1-0.3c0-0.1,0.1-0.2,0.2-0.3l54.2-33.8
			c0.1-0.1,0.3-0.1,0.5,0c0.1,0.1,0.2,0.3,0.1,0.4l-31,61.6C394.1,135.1,393.9,135.1,393.8,135.2
			C393.8,135.2,393.8,135.2,393.8,135.2z M371.2,107.1l22.5,27.1l30.2-59.9L371.2,107.1z"/>
	</g>
	<g id="triangle36_180_">
		<path d="M370.6,107.3c-0.1,0-0.2,0-0.3-0.1c-0.1-0.1-0.2-0.3-0.1-0.5l24.8-45.1c0.1-0.2,0.3-0.2,0.5-0.2l29.3,11.3
			c0.1,0.1,0.2,0.2,0.2,0.3c0,0.1-0.1,0.3-0.2,0.4l-54.2,33.8C370.8,107.3,370.7,107.3,370.6,107.3z M395.6,62.3l-24,43.5L424,73.3
			L395.6,62.3z"/>
	</g>
	<g id="triangle36_179_">
		<path d="M340.2,144.6c-0.1,0-0.3-0.1-0.3-0.2c-0.1-0.1-0.1-0.3,0-0.4l30.5-37.3c0.1-0.1,0.2-0.1,0.3-0.1h0c0.1,0,0.2,0,0.3,0.1
			l23.1,27.8c0.1,0.1,0.1,0.2,0.1,0.4c0,0.1-0.2,0.2-0.3,0.2L340.2,144.6C340.2,144.6,340.2,144.6,340.2,144.6z M370.6,107.5
			l-29.5,36.2l52-9.2L370.6,107.5z"/>
	</g>
	<g id="triangle36_178_">
		<path d="M324.6,225.7c-0.1,0-0.2,0-0.3-0.1l-46.2-54.3c-0.1-0.1-0.1-0.2-0.1-0.3c0-0.1,0.1-0.2,0.2-0.3l61.8-26.7
			c0.1-0.1,0.3,0,0.4,0.1c0.1,0.1,0.2,0.2,0.1,0.4l-15.6,81C324.9,225.5,324.8,225.6,324.6,225.7
			C324.6,225.7,324.6,225.7,324.6,225.7z M279,171.1l45.4,53.3l15.3-79.6L279,171.1z"/>
	</g>
	<g id="triangle36_177_">
		<path d="M278.4,171.4c-0.1,0-0.1,0-0.2,0c-0.1,0-0.2-0.1-0.2-0.2l-14.1-60c0-0.1,0-0.3,0.1-0.4c0.1-0.1,0.3-0.1,0.4-0.1l75.9,33.2
			c0.1,0.1,0.2,0.2,0.2,0.3c0,0.1-0.1,0.3-0.2,0.3l-61.8,26.7C278.5,171.4,278.4,171.4,278.4,171.4z M264.8,111.7l13.8,58.8
			l60.6-26.2L264.8,111.7z"/>
	</g>
	<g id="triangle36_176_">
		<path d="M340.2,144.6c-0.1,0-0.1,0-0.2,0l-75.9-33.2c-0.2-0.1-0.2-0.2-0.2-0.4c0-0.2,0.2-0.3,0.4-0.3l106.3-4.1
			c0.2,0,0.3,0.1,0.3,0.2c0.1,0.1,0,0.3,0,0.4l-30.5,37.3C340.4,144.6,340.3,144.6,340.2,144.6z M266,111.3l74.1,32.5l29.8-36.4
			L266,111.3z"/>
	</g>
</g>
<g>
	<g id="triangle36_175_" class="st1">
		<path d="M285.8,427.7c-0.1,0-0.2,0-0.3-0.1l-22-24.8c-0.1-0.1-0.1-0.3-0.1-0.4c0.1-0.1,0.2-0.2,0.3-0.2l26.6-2.5
			c0.1,0,0.2,0,0.3,0.1c0.1,0.1,0.1,0.2,0.1,0.3l-4.6,27.3c0,0.1-0.1,0.3-0.3,0.3C285.9,427.7,285.8,427.7,285.8,427.7z
			 M264.6,402.9l21,23.7l4.4-26L264.6,402.9z"/>
	</g>
	<g id="triangle36_174_" class="st1">
		<path d="M285.8,427.7c0,0-0.1,0-0.1,0L235.3,406c-0.2-0.1-0.2-0.2-0.2-0.4c0-0.2,0.2-0.3,0.3-0.3l28.3-3.1c0.1,0,0.2,0,0.3,0.1
			l22,24.8c0.1,0.1,0.1,0.3,0,0.5C286,427.7,285.9,427.7,285.8,427.7z M236.9,405.9l47.5,20.4l-20.8-23.4L236.9,405.9z"/>
	</g>
	<g id="triangle36_173_" class="st1">
		<path d="M235.5,406.1c-0.1,0-0.1,0-0.2,0l-40.9-20.4c-0.2-0.1-0.3-0.3-0.2-0.5c0.1-0.2,0.3-0.3,0.4-0.2l69.3,17.2
			c0.2,0,0.3,0.2,0.3,0.4c0,0.2-0.2,0.3-0.3,0.3L235.5,406.1C235.5,406.1,235.5,406.1,235.5,406.1z M197.8,386.5l37.8,18.8l26.1-2.9
			L197.8,386.5z"/>
	</g>
	<g id="triangle36_172_" class="st1">
		<path d="M263.8,402.9C263.8,402.9,263.8,402.9,263.8,402.9l-69.4-17.3c-0.1,0-0.3-0.2-0.3-0.3L179,305c0-0.2,0.1-0.3,0.2-0.4
			c0.2-0.1,0.3,0,0.4,0.1l84.4,97.6c0.1,0.1,0.1,0.3,0,0.4C264.1,402.9,263.9,402.9,263.8,402.9z M194.9,385l67.9,16.9L180,306.2
			L194.9,385z"/>
	</g>
	<g id="triangle36_171_" class="st1">
		<path d="M165.5,387.1c-0.1,0-0.2,0-0.3-0.1c-0.1-0.1-0.1-0.2-0.1-0.3l13.9-81.8c0-0.2,0.2-0.3,0.4-0.3c0.2,0,0.3,0.1,0.4,0.3
			l15.1,80.4c0,0.1,0,0.2-0.1,0.3c-0.1,0.1-0.2,0.1-0.3,0.1L165.5,387.1C165.5,387.1,165.5,387.1,165.5,387.1z M179.4,307.1
			L166,386.4l28.1-1.4L179.4,307.1z"/>
	</g>
	<g id="triangle36_170_" class="st1">
		<path d="M354.4,443.3C354.4,443.3,354.3,443.3,354.4,443.3l-68.7-15.6c-0.2,0-0.3-0.2-0.3-0.4l4.6-27.3c0-0.1,0.1-0.2,0.2-0.3
			c0.1,0,0.3,0,0.4,0l63.9,42.8c0.1,0.1,0.2,0.2,0.2,0.4C354.8,443.1,354.6,443.3,354.4,443.3C354.4,443.3,354.4,443.3,354.4,443.3z
			 M286.2,427.1l66.3,15l-61.8-41.4L286.2,427.1z"/>
	</g>
	<g id="triangle36_169_" class="st1">
		<path d="M354.4,443.3c-0.1,0-0.1,0-0.2-0.1l-63.9-42.8c-0.1-0.1-0.2-0.2-0.2-0.4c0-0.2,0.2-0.3,0.3-0.3l106.3-12.8
			c0.2,0,0.3,0.1,0.4,0.2c0.1,0.1,0.1,0.3,0,0.4l-42.4,55.6C354.6,443.2,354.5,443.3,354.4,443.3z M291.5,400.3l62.8,42.1l41.6-54.7
			L291.5,400.3z"/>
	</g>
	<g id="triangle36_168_" class="st1">
		<path d="M290.4,400.4c-0.2,0-0.3-0.1-0.4-0.3l-45.6-145c0-0.2,0-0.3,0.2-0.4c0.1-0.1,0.3-0.1,0.5,0L397,387
			c0.1,0.1,0.2,0.3,0.1,0.4c0,0.1-0.2,0.2-0.3,0.3L290.4,400.4C290.5,400.4,290.5,400.4,290.4,400.4z M245.6,256.2l45.1,143.5
			L395.9,387L245.6,256.2z"/>
	</g>
	<g id="triangle36_167_" class="st1">
		<path d="M263.8,402.9c-0.2,0-0.3-0.1-0.4-0.3l-18.9-147.5c0-0.2,0.1-0.4,0.3-0.4c0.2,0,0.4,0.1,0.4,0.3l45.6,145
			c0,0.1,0,0.2,0,0.3c-0.1,0.1-0.2,0.2-0.3,0.2L263.8,402.9C263.8,402.9,263.8,402.9,263.8,402.9z M245.8,259.2l18.3,143l25.8-2.4
			L245.8,259.2z"/>
	</g>
	<g id="triangle36_166_" class="st1">
		<path d="M263.8,402.9c-0.1,0-0.2,0-0.3-0.1l-84.4-97.6c-0.1-0.1-0.1-0.2-0.1-0.3c0-0.1,0.1-0.2,0.1-0.3l65.5-49.9
			c0.1-0.1,0.2-0.1,0.4,0c0.1,0.1,0.2,0.2,0.2,0.3l18.9,147.4c0,0,0,0.1,0,0.2C264.2,402.8,264,402.9,263.8,402.9
			C263.8,402.9,263.8,402.9,263.8,402.9z M180,305l83.3,96.4l-18.7-145.6L180,305z"/>
	</g>
	<g id="triangle36_165_" class="st1">
		<path d="M244.9,255.4C244.9,255.4,244.9,255.4,244.9,255.4l-90.6-4.1c-0.2,0-0.3-0.1-0.3-0.3c0-0.2,0-0.3,0.2-0.4l70.5-45
			c0.1-0.1,0.2-0.1,0.3,0c0.1,0,0.2,0.1,0.2,0.2l20.1,49.1c0,0.1,0,0.3,0,0.4C245.1,255.4,245,255.4,244.9,255.4z M155.5,250.6
			l88.8,4l-19.7-48.1L155.5,250.6z"/>
	</g>
	<g id="triangle36_164_" class="st1">
		<path d="M179.4,305.3C179.4,305.3,179.3,305.3,179.4,305.3c-0.2,0-0.3-0.1-0.3-0.2l-25.1-54c-0.1-0.1,0-0.3,0-0.4
			c0.1-0.1,0.2-0.2,0.3-0.2l90.5,4.1c0.2,0,0.3,0.1,0.3,0.3c0,0.2,0,0.3-0.1,0.4l-65.5,49.9C179.6,305.3,179.5,305.3,179.4,305.3z
			 M154.9,251.3l24.6,53l64.3-49L154.9,251.3z"/>
	</g>
	<g id="triangle36_163_" class="st1">
		<path d="M396.8,387.6C396.8,387.6,396.8,387.6,396.8,387.6c-0.1,0-0.2,0-0.3-0.1L244.6,255.3c-0.1-0.1-0.2-0.3-0.1-0.4l38.2-102
			c0.1-0.1,0.2-0.2,0.3-0.2c0.1,0,0.3,0.1,0.4,0.2L397.1,387c0.1,0.1,0.1,0.2,0.1,0.3C397.2,387.5,397,387.6,396.8,387.6z
			 M245.3,254.9l150.3,130.8L283.1,153.9L245.3,254.9z"/>
	</g>
	<g id="triangle36_162_" class="st1">
		<path d="M244.9,255.4c-0.2,0-0.3-0.1-0.3-0.2l-20.1-49.1c-0.1-0.1,0-0.3,0.1-0.4l58.3-53c0.1-0.1,0.3-0.1,0.5,0
			c0.1,0.1,0.2,0.3,0.1,0.4l-38.2,102C245.2,255.3,245,255.4,244.9,255.4L244.9,255.4z M225.2,206.1l19.6,47.9l37.3-99.7
			L225.2,206.1z"/>
	</g>
	<g id="triangle36_161_" class="st1">
		<path d="M224.8,206.4c-0.1,0-0.2,0-0.2-0.1c-0.1-0.1-0.2-0.3-0.1-0.5l48.7-83.6c0.1-0.1,0.2-0.2,0.4-0.2c0.1,0,0.3,0.1,0.3,0.3
			l9.6,30.6c0,0.1,0,0.3-0.1,0.4l-58.3,53C225,206.3,224.9,206.4,224.8,206.4z M273.4,123.3l-47.1,80.7l56.3-51.2L273.4,123.3z"/>
	</g>
	<g id="triangle36_160_" class="st1">
		<path d="M285.8,427.7C285.8,427.7,285.8,427.7,285.8,427.7l-66.6-3.6c-0.1,0-0.3-0.1-0.3-0.2c-0.1-0.1,0-0.3,0.1-0.4l16.3-18.1
			c0.1-0.1,0.3-0.2,0.4-0.1L286,427c0.2,0.1,0.3,0.3,0.2,0.4C286.1,427.6,286,427.7,285.8,427.7z M220,423.4l63.7,3.4l-48.2-20.7
			L220,423.4z"/>
	</g>
	<g id="triangle36_159_" class="st1">
		<path d="M219.2,424.1C219.2,424.1,219.2,424.1,219.2,424.1c-0.1,0-0.3-0.1-0.3-0.2l-24.6-38.5c-0.1-0.1-0.1-0.3,0-0.5
			c0.1-0.1,0.3-0.2,0.4-0.1l40.9,20.4c0.1,0.1,0.2,0.2,0.2,0.3c0,0.1,0,0.2-0.1,0.3L219.5,424C219.4,424.1,219.3,424.1,219.2,424.1z
			 M195.6,386.2l23.6,36.9l15.6-17.3L195.6,386.2z"/>
	</g>
	<g id="triangle36_158_" class="st1">
		<path d="M219.2,424.1c-0.1,0-0.1,0-0.2-0.1l-53.7-37c-0.1-0.1-0.2-0.3-0.1-0.4c0-0.2,0.2-0.3,0.3-0.3l29-1.5
			c0.1,0,0.3,0.1,0.3,0.2l24.6,38.5c0.1,0.2,0.1,0.3-0.1,0.5C219.4,424.1,219.3,424.1,219.2,424.1z M166.6,387.1l51.2,35.3
			l-23.5-36.7L166.6,387.1z"/>
	</g>
	<g id="triangle36_157_" class="st1">
		<path d="M165.5,387.1c-0.1,0-0.2,0-0.3-0.1l-56-54.7c-0.1-0.1-0.1-0.2-0.1-0.3c0-0.1,0.1-0.2,0.2-0.3l69.9-27.1
			c0.1,0,0.3,0,0.4,0.1c0.1,0.1,0.2,0.2,0.1,0.4l-13.9,81.8c0,0.1-0.1,0.3-0.3,0.3C165.6,387.1,165.6,387.1,165.5,387.1z
			 M110.2,332.2l55.1,53.8l13.7-80.5L110.2,332.2z"/>
	</g>
	<g id="triangle36_156_" class="st1">
		<path d="M121.7,393.4c-0.2,0-0.3-0.1-0.4-0.3l-12.1-61c0-0.2,0-0.3,0.2-0.4c0.1-0.1,0.3-0.1,0.4,0.1l56,54.7
			c0.1,0.1,0.1,0.2,0.1,0.4c0,0.1-0.2,0.2-0.3,0.3L121.7,393.4C121.7,393.4,121.7,393.4,121.7,393.4z M110.1,333.1l11.8,59.4
			l42.8-6.1L110.1,333.1z"/>
	</g>
	<g id="triangle36_155_" class="st1">
		<path d="M109.5,332.4c-0.1,0-0.2,0-0.3-0.1c-0.1-0.1-0.1-0.3,0-0.4l44.8-81.1c0.1-0.1,0.2-0.2,0.3-0.2c0.1,0,0.3,0.1,0.3,0.2
			l25.1,54c0,0.1,0,0.2,0,0.3c0,0.1-0.1,0.2-0.2,0.2l-69.9,27.1C109.6,332.4,109.6,332.4,109.5,332.4z M154.3,251.8l-43.9,79.5
			l68.5-26.6L154.3,251.8z"/>
	</g>
	<g id="triangle36_154_" class="st1">
		<path d="M110.2,396.8c-0.1,0-0.2,0-0.2-0.1c-0.1-0.1-0.2-0.2-0.2-0.3l-0.7-64.4c0-0.2,0.1-0.4,0.3-0.4c0.2,0,0.4,0.1,0.4,0.3
			l12.1,61c0,0.2-0.1,0.4-0.3,0.4l-11.4,3.4C110.3,396.8,110.3,396.8,110.2,396.8z M110,336.1l0.6,59.9l10.6-3.2L110,336.1z"/>
	</g>
	<g id="triangle36_153_" class="st1">
		<path d="M110.2,396.8c-0.1,0-0.2,0-0.3-0.1L73.2,360c-0.1-0.1-0.1-0.2-0.1-0.3c0-0.1,0.1-0.2,0.1-0.3l36.1-27.7
			c0.1-0.1,0.3-0.1,0.4,0c0.1,0.1,0.2,0.2,0.2,0.3l0.7,64.3c0,0,0,0.1,0,0.1C110.6,396.6,110.5,396.8,110.2,396.8
			C110.2,396.8,110.2,396.8,110.2,396.8z M74.1,359.8l35.8,35.8l-0.7-62.7L74.1,359.8z"/>
	</g>
	<g id="triangle36_152_" class="st1">
		<path d="M109.5,332.4c-0.1,0-0.1,0-0.2-0.1L0.2,265.9C0,265.8,0,265.6,0,265.5c0-0.2,0.2-0.3,0.3-0.3l154-14.6
			c0.1,0,0.3,0.1,0.3,0.2c0.1,0.1,0.1,0.3,0,0.4l-44.8,81.1C109.8,332.3,109.7,332.4,109.5,332.4
			C109.6,332.4,109.6,332.4,109.5,332.4z M1.5,265.8l107.9,65.7l44.3-80.1L1.5,265.8z"/>
	</g>
	<g id="triangle36_151_" class="st1">
		<path d="M73.5,360.1c-0.1,0-0.2,0-0.3-0.1L0.1,265.8c-0.1-0.1-0.1-0.3,0-0.5c0.1-0.1,0.3-0.2,0.5-0.1l109.2,66.5
			c0.1,0.1,0.2,0.2,0.2,0.3c0,0.1,0,0.2-0.1,0.3L73.7,360C73.6,360.1,73.6,360.1,73.5,360.1z M1.9,267l71.6,92.3l35.3-27.1L1.9,267z
			"/>
	</g>
	<g id="triangle36_150_" class="st1">
		<path d="M396.8,387.6c-0.1,0-0.3-0.1-0.3-0.2L282.7,153.2c0-0.1,0-0.2,0-0.3c0-0.1,0.1-0.2,0.2-0.2l136.7-47.1
			c0.1,0,0.3,0,0.4,0.1c0.1,0.1,0.2,0.2,0.1,0.3l-23,281.4C397.1,387.4,397,387.6,396.8,387.6C396.8,387.6,396.8,387.6,396.8,387.6z
			 M283.6,153.2l112.9,232.6l22.9-279.4L283.6,153.2z"/>
	</g>
	<g id="triangle36_149_" class="st1">
		<path d="M354.4,443.3c-0.1,0-0.2,0-0.3-0.1c-0.1-0.1-0.2-0.3,0-0.5l42.4-55.6c0.1-0.1,0.3-0.2,0.4-0.1c0.1,0,0.3,0.2,0.3,0.3
			l1.6,16c0,0.1,0,0.2-0.1,0.3l-44,39.6C354.6,443.2,354.5,443.3,354.4,443.3z M396.5,388.2l-39.4,51.7l40.9-36.8L396.5,388.2z"/>
	</g>
	<g id="triangle36_148_" class="st1">
		<path d="M0.4,265.9c0,0-0.1,0-0.1,0c-0.2-0.1-0.3-0.2-0.2-0.4l32.1-160.4c0-0.2,0.2-0.3,0.4-0.3l68.9,11.5c0.1,0,0.2,0.1,0.3,0.2
			c0.1,0.1,0,0.3,0,0.4L0.7,265.8C0.6,265.9,0.5,265.9,0.4,265.9z M32.7,105.6L1.1,263.8l99.6-146.9L32.7,105.6z"/>
	</g>
	<g id="triangle36_147_" class="st1">
		<path d="M0.4,265.9c-0.1,0-0.3-0.1-0.3-0.2c-0.1-0.1-0.1-0.3,0-0.4l101-148.9c0.1-0.1,0.2-0.2,0.4-0.2c0.1,0,0.3,0.1,0.3,0.2
			l53,134.3c0,0.1,0,0.2,0,0.3c-0.1,0.1-0.2,0.2-0.3,0.2L0.4,265.9C0.4,265.9,0.4,265.9,0.4,265.9z M101.2,117.4L1.1,265.1
			l152.7-14.5L101.2,117.4z"/>
	</g>
	<g id="triangle36_146_" class="st1">
		<path d="M419.8,106.2c0,0-0.1,0-0.1,0c-0.2,0-0.3-0.2-0.3-0.3L419,90.4c0-0.2,0.1-0.3,0.3-0.4l14.8-4.8c0.2,0,0.3,0,0.4,0.1
			c0.1,0.1,0.1,0.3,0,0.4l-14.4,20.3C420,106.2,419.9,106.2,419.8,106.2z M419.8,90.6l0.4,14.1l13.1-18.5L419.8,90.6z"/>
	</g>
	<g id="triangle36_145_" class="st1">
		<path d="M306.8,124.6c-0.2,0-0.3-0.1-0.4-0.3c0-0.2,0.1-0.4,0.3-0.4L419.3,90c0.1,0,0.2,0,0.3,0.1c0.1,0.1,0.2,0.2,0.2,0.3
			l0.4,15.5c0,0.2-0.1,0.4-0.3,0.4L306.8,124.6C306.9,124.6,306.9,124.6,306.8,124.6z M419,90.8l-106.6,32.1l107-17.4L419,90.8z"/>
	</g>
	<g id="triangle36_144_" class="st1">
		<path d="M283.1,153.4c-0.1,0-0.2-0.1-0.3-0.2c-0.1-0.1-0.1-0.3,0-0.5l23.8-28.8c0.1-0.1,0.1-0.1,0.2-0.1l113-18.3
			c0.2,0,0.4,0.1,0.4,0.3c0,0.2-0.1,0.4-0.2,0.4l-136.7,47.1C283.2,153.4,283.1,153.4,283.1,153.4z M307,124.5l-22.8,27.7
			l131.3-45.3L307,124.5z"/>
	</g>
	<g id="triangle36_143_" class="st1">
		<path d="M283.1,153.4C283.1,153.4,283,153.4,283.1,153.4c-0.2,0-0.3-0.1-0.4-0.3l-9.6-30.6c0-0.1,0-0.2,0.1-0.3
			c0.1-0.1,0.2-0.2,0.3-0.1l33.3,1.8c0.1,0,0.3,0.1,0.3,0.2c0.1,0.1,0,0.3-0.1,0.4l-23.8,28.8C283.3,153.3,283.2,153.4,283.1,153.4z
			 M274,122.8l9.2,29.4l22.8-27.7L274,122.8z"/>
	</g>
	<g id="triangle36_142_" class="st1">
		<path d="M101.3,117c-0.1,0-0.2,0-0.2-0.1L33.5,62.8c-0.1-0.1-0.2-0.3-0.1-0.4s0.2-0.2,0.4-0.2l92.8,12c0.1,0,0.2,0.1,0.3,0.2
			c0.1,0.1,0,0.2,0,0.4l-25.2,42.1C101.6,116.9,101.5,117,101.3,117C101.4,117,101.4,117,101.3,117z M35,63l66.2,53l24.7-41.3L35,63
			z"/>
	</g>
	<g id="triangle36_141_" class="st1">
		<path d="M101.3,117C101.3,117,101.3,117,101.3,117l-69-11.5c-0.2,0-0.3-0.2-0.3-0.4l1.3-42.6c0-0.1,0.1-0.3,0.2-0.3
			c0.1-0.1,0.3,0,0.4,0l67.5,54.1c0.1,0.1,0.2,0.2,0.2,0.3C101.7,116.9,101.6,117,101.3,117C101.3,117,101.3,117,101.3,117z
			 M32.8,104.8L100,116L34.1,63.3L32.8,104.8z"/>
	</g>
	<g id="triangle36_140_" class="st1">
		<path d="M162.8,139.3c0,0-0.1,0-0.1,0L101.2,117c-0.1,0-0.2-0.1-0.2-0.2c0-0.1,0-0.2,0-0.3l25.2-42.1c0.1-0.1,0.2-0.2,0.3-0.2
			c0.1,0,0.3,0.1,0.3,0.2l36.2,64.4c0.1,0.1,0.1,0.3,0,0.4C163,139.2,162.9,139.3,162.8,139.3z M101.9,116.5l60.1,21.7l-35.4-62.9
			L101.9,116.5z"/>
	</g>
	<g id="triangle36_139_" class="st1">
		<path d="M224.8,206.4c-0.1,0-0.2,0-0.3-0.1l-62-67.1c-0.1-0.1-0.1-0.2-0.1-0.4c0-0.1,0.2-0.2,0.3-0.2L273.5,122
			c0.1,0,0.3,0,0.4,0.2c0.1,0.1,0.1,0.3,0,0.4l-48.7,83.6C225.1,206.3,225,206.3,224.8,206.4C224.8,206.4,224.8,206.4,224.8,206.4z
			 M163.5,139.2l61.2,66.2l48.1-82.5L163.5,139.2z"/>
	</g>
	<g id="triangle36_138_" class="st1">
		<path d="M154.3,251.3c-0.1,0-0.1,0-0.2-0.1c-0.1-0.1-0.2-0.2-0.2-0.4l8.4-112.1c0-0.1,0.1-0.3,0.3-0.3c0.1,0,0.3,0,0.4,0.1
			l62,67.1c0.1,0.1,0.1,0.2,0.1,0.3c0,0.1-0.1,0.2-0.2,0.3l-70.5,45C154.5,251.3,154.4,251.3,154.3,251.3z M163.1,139.8l-8.3,110.5
			l69.4-44.3L163.1,139.8z"/>
	</g>
	<g id="triangle36_137_" class="st1">
		<path d="M154.3,251.3c-0.2,0-0.3-0.1-0.3-0.2l-53-134.3c-0.1-0.1,0-0.3,0.1-0.4c0.1-0.1,0.3-0.1,0.4-0.1l61.4,22.2
			c0.2,0.1,0.3,0.2,0.2,0.4L154.7,251C154.7,251.1,154.6,251.3,154.3,251.3C154.4,251.3,154.4,251.3,154.3,251.3z M102,117.3
			l52.1,132l8.3-110.1L102,117.3z"/>
	</g>
</g>
</svg>
