<?xml version="1.0" encoding="utf-8"?>
<!-- Generator: Adobe Illustrator 22.0.1, SVG Export Plug-In . SVG Version: 6.00 Build 0)  -->
<svg version="1.0" id="レイヤー_1" xmlns="http://www.w3.org/2000/svg" xmlns:xlink="http://www.w3.org/1999/xlink" x="0px"
	 y="0px" viewBox="0 0 401.806 373.146" enable-background="new 0 0 401.806 373.146" xml:space="preserve">
<g>
	<polygon fill="none" stroke="#000000" points="400.94,29.543 203.14,372.146 5.34,29.543 	"/>
	<polygon fill="none" stroke="#000000" points="351.571,18.184 229.799,352.756 0.94,80.01 	"/>
	<polygon fill="none" stroke="#000000" points="305.393,9.819 249.751,325.39 4.282,119.414 	"/>
	<polygon fill="none" stroke="#000000" points="263.524,4.177 263.525,292.571 13.769,148.374 	"/>
	<polygon fill="none" stroke="#000000" points="226.712,0.94 271.784,256.55 27.882,167.777 	"/>
	<polygon fill="none" stroke="#000000" points="197.982,3.345 277.879,222.857 47.828,182.296 	"/>
	<polygon fill="none" stroke="#000000" points="176.885,10.238 282.005,192.309 71.766,192.313 	"/>
	<polygon fill="none" stroke="#000000" points="162.77,20.504 284.396,165.45 98.056,198.312 	"/>
	<polygon fill="none" stroke="#000000" points="152.216,35.042 282.669,144.502 122.647,202.75 	"/>
	<polygon fill="none" stroke="#000000" points="144.94,52.506 277.671,129.137 144.943,205.771 	"/>
	<polygon fill="none" stroke="#000000" points="140.59,71.702 270.21,118.878 164.545,207.543 	"/>
	<polygon fill="none" stroke="#000000" points="137.359,89.656 259.618,111.212 179.821,206.311 	"/>
	<polygon fill="none" stroke="#000000" points="135.145,105.935 246.874,105.935 191.011,202.694 	"/>
	<polygon fill="none" stroke="#000000" points="133.822,120.246 232.85,102.785 198.458,197.275 	"/>
	<polygon fill="none" stroke="#000000" points="134.689,131.388 219.732,100.434 204.018,189.556 	"/>
	<polygon fill="none" stroke="#000000" points="137.302,139.532 207.84,98.805 207.839,180.252 	"/>
	<polygon fill="none" stroke="#000000" points="141.229,144.931 197.384,97.812 210.112,169.999 	"/>
	<polygon fill="none" stroke="#000000" points="146.851,148.954 189.258,98.414 211.821,160.405 	"/>
	<polygon fill="none" stroke="#000000" points="153.646,151.713 183.335,100.29 213.022,151.709 	"/>
	<polygon fill="none" stroke="#000000" points="161.152,153.347 179.429,103.131 213.777,144.065 	"/>
	<polygon fill="none" stroke="#000000" points="168.172,154.588 176.524,107.225 213.364,138.137 	"/>
	<polygon fill="none" stroke="#000000" points="174.538,155.474 174.538,112.192 212.021,133.831 	"/>
	<polygon fill="none" stroke="#000000" points="180.132,156.055 173.368,117.693 209.973,131.017 	"/>
	<polygon fill="none" stroke="#000000" points="184.459,155.785 172.468,122.839 206.995,128.928 	"/>
	<polygon fill="none" stroke="#000000" points="187.584,154.832 171.807,127.505 203.361,127.505 	"/>
	<polygon fill="none" stroke="#000000" points="189.607,153.362 171.352,131.604 199.319,126.673 	"/>
	<polygon fill="none" stroke="#000000" points="191.101,151.194 171.521,134.763 195.539,126.023 	"/>
	<polygon fill="none" stroke="#000000" points="192.112,148.532 172.19,137.028 192.111,125.527 	"/>
	<polygon fill="none" stroke="#000000" points="192.696,145.555 173.239,138.471 189.098,125.166 	"/>
	<polygon fill="none" stroke="#000000" points="193.166,142.771 174.815,139.534 186.791,125.263 	"/>
	<polygon fill="none" stroke="#000000" points="193.539,140.248 176.77,140.248 185.153,125.725 	"/>
	<polygon fill="none" stroke="#000000" points="193.834,138.029 178.97,140.65 184.131,126.467 	"/>
	<polygon fill="none" stroke="#000000" points="193.793,136.343 181.028,140.988 183.387,127.612 	"/>
	<polygon fill="none" stroke="#000000" points="193.482,135.162 182.895,141.274 182.893,129.049 	"/>
	<polygon fill="none" stroke="#000000" points="192.961,134.445 184.534,141.518 182.621,130.684 	"/>
	<polygon fill="none" stroke="#000000" points="192.132,133.933 185.768,141.518 182.379,132.214 	"/>
	<polygon fill="none" stroke="#000000" points="191.071,133.6 186.617,141.317 182.158,133.6 	"/>
	<polygon fill="none" stroke="#000000" points="189.848,133.426 187.106,140.961 181.948,134.818 	"/>
	<polygon fill="none" stroke="#000000" points="188.705,133.253 187.452,140.36 181.92,135.722 	"/>
	<polygon fill="none" stroke="#000000" points="187.668,133.078 187.668,139.574 182.041,136.328 	"/>
	<polygon fill="none" stroke="#000000" points="186.759,132.896 187.774,138.652 182.279,136.654 	"/>
	<polygon fill="none" stroke="#000000" points="186.096,132.845 187.896,137.791 182.712,136.878 	"/>
	<polygon fill="none" stroke="#000000" points="185.668,132.907 188.036,137.01 183.298,137.01 	"/>
	<polygon fill="none" stroke="#000000" points="185.459,133.058 188.2,136.324 184.001,137.067 	"/>
	<polygon fill="none" stroke="#000000" points="185.325,133.369 188.264,135.837 184.66,137.151 	"/>
	<polygon fill="none" stroke="#000000" points="185.254,133.811 188.245,135.538 185.255,137.265 	"/>
	<polygon fill="none" stroke="#000000" points="185.235,134.356 188.156,135.418 185.777,137.416 	"/>
	<polygon fill="none" stroke="#000000" points="185.179,134.863 187.933,135.347 186.137,137.491 	"/>
	<polygon fill="none" stroke="#000000" points="185.082,135.322 187.598,135.322 186.342,137.503 	"/>
	<polygon fill="none" stroke="#000000" points="184.941,135.724 187.171,135.331 186.399,137.46 	"/>
	<polygon fill="none" stroke="#000000" points="184.856,135.993 186.772,135.293 186.42,137.303 	"/>
	<polygon fill="none" stroke="#000000" points="184.822,136.128 186.412,135.209 186.414,137.047 	"/>
	<polygon fill="none" stroke="#000000" points="184.831,136.139 186.096,135.076 186.385,136.705 	"/>
	<polygon fill="none" stroke="#000000" points="184.941,136.128 185.896,134.987 186.407,136.386 	"/>
	<polygon fill="none" stroke="#000000" points="185.143,136.097 185.81,134.936 186.482,136.097 	"/>
	<polygon fill="none" stroke="#000000" points="185.423,136.055 185.833,134.921 186.61,135.846 	"/>
	<polygon fill="none" stroke="#000000" points="185.685,136.066 185.872,134.998 186.705,135.697 	"/>
	<polygon fill="none" stroke="#000000" points="185.923,136.133 185.921,135.158 186.769,135.646 	"/>
	<polygon fill="none" stroke="#000000" points="186.13,136.257 185.976,135.393 186.803,135.693 	"/>
	<polygon fill="none" stroke="#000000" points="186.244,136.353 185.973,135.611 186.754,135.749 	"/>
	<polygon fill="none" stroke="#000000" points="186.268,136.423 185.913,135.809 186.626,135.809 	"/>
	<polygon fill="none" stroke="#000000" points="186.204,136.472 185.795,135.98 186.425,135.871 	"/>
	<polygon fill="none" stroke="#000000" points="186.135,136.441 185.696,136.068 186.238,135.875 	"/>
	<polygon fill="none" stroke="#000000" points="186.065,136.333 185.617,136.073 186.068,135.818 	"/>
	<polygon fill="none" stroke="#000000" points="185.998,136.155 185.561,135.999 185.92,135.7 	"/>
	<polygon fill="none" stroke="#000000" points="185.99,135.986 185.579,135.917 185.851,135.595 	"/>
	<polygon fill="none" stroke="#000000" points="186.045,135.831 185.669,135.835 185.861,135.507 	"/>
</g>
</svg>
